<?xml version="1.0" encoding="UTF-8" standalone="no"?>
<svg width="95px" height="16px" viewBox="0 0 95 16" version="1.1" xmlns="http://www.w3.org/2000/svg" xmlns:xlink="http://www.w3.org/1999/xlink" xmlns:sketch="http://www.bohemiancoding.com/sketch/ns">
    <!-- Generator: Sketch 3.0.4 (8054) - http://www.bohemiancoding.com/sketch -->
    <title>Shape 2</title>
    <desc>Created with Sketch.</desc>
    <defs></defs>
    <g id="Page-1" stroke="none" stroke-width="1" fill="none" fill-rule="evenodd" sketch:type="MSPage">
        <path d="M565.428,15.69 C563.185,15.69 562.38,12.136 561.449,8.025 C560.905,5.634 559.998,1.63 559.054,1.63 C558.11,1.63 557.2,5.636 556.658,8.029 C555.726,12.137 554.925,15.69 552.681,15.69 C550.441,15.69 549.637,12.136 548.706,8.025 C548.2,5.791 547.261,1.63 546.317,1.63 C545.379,1.63 544.436,5.792 543.93,8.027 C543,12.136 542.198,15.69 539.957,15.69 C537.719,15.69 536.914,12.136 535.982,8.027 C535.478,5.791 534.539,1.63 533.595,1.63 C532.657,1.63 531.714,5.791 531.208,8.025 C530.276,12.136 529.474,15.69 527.231,15.69 C524.991,15.69 524.187,12.135 523.258,8.023 C522.752,5.79 521.811,1.629 520.872,1.629 C519.931,1.629 518.99,5.789 518.483,8.023 C517.552,12.135 516.751,15.69 514.507,15.69 C512.268,15.69 511.465,12.136 510.535,8.027 C510.03,5.791 509.09,1.63 508.149,1.63 C507.21,1.63 506.266,5.792 505.761,8.027 C504.833,12.136 504.032,15.69 501.791,15.69 C499.55,15.69 498.746,12.135 497.816,8.023 C497.311,5.789 496.37,1.63 495.431,1.63 C494.493,1.63 493.552,5.792 493.046,8.026 C492.116,12.137 491.316,15.69 489.077,15.69 C486.837,15.69 486.034,12.136 485.104,8.024 C484.598,5.791 483.659,1.63 482.719,1.63 C481.781,1.63 480.842,5.79 480.337,8.025 C479.408,12.136 478.608,15.69 476.369,15.69 C474.132,15.69 473.33,12.136 472.4,8.025 C471.893,5.791 470.956,1.629 470.013,1.629 C469.077,1.629 468.136,5.789 467.632,8.023 C466.702,12.135 465.902,15.69 463.661,15.69 C461.419,15.69 460.616,12.135 459.686,8.023 C459.178,5.789 458.24,1.63 457.299,1.63 C456.361,1.63 455.422,5.791 454.916,8.025 C453.985,12.136 453.184,15.69 450.945,15.69 C448.706,15.69 447.904,12.136 446.971,8.027 C446.466,5.791 445.527,1.63 444.585,1.63 C443.647,1.63 442.708,5.79 442.204,8.024 C441.274,12.136 440.474,15.69 438.232,15.69 C435.995,15.69 435.192,12.137 434.26,8.029 C433.753,5.793 432.815,1.631 431.873,1.631 C430.935,1.631 429.995,5.79 429.49,8.023 C428.562,12.136 427.76,15.69 425.519,15.69 C423.281,15.69 422.478,12.137 421.547,8.026 C421.042,5.792 420.105,1.631 419.163,1.631 C418.225,1.631 417.284,5.792 416.778,8.026 C415.849,12.137 415.047,15.69 412.807,15.69 C410.569,15.69 409.768,12.137 408.836,8.026 C408.332,5.791 407.395,1.631 406.453,1.631 C405.515,1.631 404.574,5.792 404.07,8.026 C403.14,12.137 402.336,15.69 400.097,15.69 C397.86,15.69 397.058,12.137 396.127,8.026 C395.622,5.791 394.685,1.631 393.745,1.631 C392.807,1.631 391.865,5.793 391.36,8.029 C390.432,12.137 389.631,15.69 387.392,15.69 C385.156,15.69 384.353,12.137 383.423,8.029 C382.918,5.793 381.979,1.631 381.039,1.631 C380.099,1.631 379.16,5.792 378.654,8.026 C377.726,12.137 376.922,15.69 374.683,15.69 C372.444,15.69 371.642,12.137 370.711,8.026 C370.205,5.792 369.268,1.631 368.325,1.631 C367.389,1.631 366.45,5.791 365.946,8.026 C365.016,12.137 364.217,15.69 361.977,15.69 C359.74,15.69 358.938,12.137 358.01,8.026 C357.503,5.791 356.566,1.631 355.628,1.631 C354.69,1.631 353.75,5.791 353.246,8.026 C352.315,12.137 351.515,15.69 349.275,15.69 C347.035,15.69 346.234,12.137 345.304,8.026 C344.799,5.792 343.859,1.631 342.919,1.631 C341.981,1.631 341.042,5.791 340.537,8.026 C339.608,12.137 338.808,15.69 336.57,15.69 C334.332,15.69 333.531,12.137 332.602,8.026 C332.097,5.791 331.158,1.631 330.22,1.631 C329.283,1.631 328.346,5.791 327.841,8.025 C326.913,12.137 326.112,15.69 323.875,15.69 C321.638,15.69 320.836,12.137 319.906,8.026 C319.402,5.791 318.463,1.631 317.525,1.631 C316.587,1.631 315.646,5.793 315.14,8.027 C314.21,12.138 313.41,15.692 311.171,15.692 C308.932,15.692 308.13,12.137 307.2,8.025 C306.696,5.791 305.757,1.631 304.819,1.631 C303.881,1.631 302.943,5.791 302.439,8.026 C301.509,12.137 300.71,15.69 298.471,15.69 C296.232,15.69 295.432,12.137 294.505,8.026 C294,5.792 293.064,1.63 292.127,1.63 C291.189,1.63 290.252,5.791 289.746,8.026 C288.818,12.137 288.017,15.69 285.781,15.69 C283.545,15.69 282.744,12.137 281.815,8.025 C281.31,5.791 280.373,1.631 279.435,1.631 C278.497,1.631 277.56,5.793 277.054,8.029 C276.126,12.137 275.325,15.69 273.089,15.69 C270.851,15.69 270.05,12.137 269.122,8.026 C268.616,5.791 267.677,1.631 266.741,1.631 C265.802,1.631 264.864,5.791 264.358,8.026 C263.426,12.137 262.627,15.69 260.388,15.69 C258.149,15.69 257.347,12.137 256.419,8.026 C255.914,5.791 254.976,1.631 254.038,1.631 C253.1,1.631 252.162,5.791 251.656,8.025 C250.727,12.137 249.927,15.692 247.687,15.692 C245.449,15.692 244.647,12.137 243.716,8.025 C243.212,5.791 242.273,1.631 241.335,1.631 C240.397,1.631 239.456,5.793 238.952,8.027 C238.021,12.138 237.22,15.692 234.981,15.692 C232.744,15.692 231.942,12.137 231.011,8.025 C230.507,5.791 229.568,1.631 228.63,1.631 C227.692,1.631 226.75,5.793 226.244,8.027 C225.316,12.138 224.515,15.692 222.276,15.692 C220.037,15.692 219.236,12.137 218.305,8.025 C217.801,5.791 216.862,1.631 215.924,1.631 C214.986,1.631 214.044,5.793 213.54,8.029 C212.612,12.137 211.81,15.69 209.571,15.69 C207.332,15.69 206.532,12.137 205.6,8.026 C205.095,5.791 204.159,1.631 203.218,1.631 C202.28,1.631 201.341,5.791 200.837,8.026 C199.905,12.137 199.106,15.69 196.867,15.69 C194.628,15.69 193.826,12.137 192.898,8.026 C192.394,5.791 191.456,1.631 190.517,1.631 C189.579,1.631 188.64,5.79 188.136,8.023 C187.206,12.136 186.404,15.69 184.164,15.69 C181.927,15.69 181.125,12.137 180.194,8.026 C179.692,5.791 178.752,1.631 177.814,1.631 C176.876,1.631 175.938,5.791 175.432,8.026 C174.501,12.137 173.7,15.69 171.463,15.69 C169.225,15.69 168.424,12.137 167.494,8.026 C166.989,5.792 166.051,1.63 165.11,1.63 C164.173,1.63 163.232,5.79 162.728,8.024 C161.798,12.136 160.998,15.69 158.755,15.69 C156.521,15.69 155.718,12.137 154.788,8.026 C154.282,5.792 153.345,1.63 152.404,1.63 C151.466,1.63 150.527,5.791 150.022,8.026 C149.092,12.137 148.292,15.69 146.054,15.69 C143.816,15.69 143.016,12.137 142.084,8.026 C141.581,5.791 140.642,1.631 139.704,1.631 C138.766,1.631 137.829,5.791 137.323,8.026 C136.394,12.137 135.594,15.69 133.355,15.69 C131.116,15.69 130.315,12.137 129.386,8.029 C128.882,5.793 127.942,1.631 127.002,1.631 C126.064,1.631 125.125,5.791 124.621,8.026 C123.691,12.137 122.892,15.69 120.653,15.69 C118.414,15.69 117.61,12.136 116.681,8.024 C116.176,5.79 115.237,1.63 114.299,1.63 C113.36,1.63 112.42,5.791 111.915,8.026 C110.985,12.137 110.185,15.69 107.945,15.69 C105.708,15.69 104.909,12.137 103.978,8.026 C103.473,5.791 102.534,1.631 101.597,1.631 C100.659,1.631 99.718,5.793 99.213,8.029 C98.282,12.137 97.483,15.69 95.245,15.69 C93.007,15.69 92.204,12.136 91.276,8.023 C90.771,5.79 89.834,1.631 88.898,1.631 C87.96,1.631 87.022,5.791 86.517,8.026 C85.587,12.137 84.788,15.69 82.548,15.69 C80.31,15.69 79.51,12.137 78.579,8.026 C78.074,5.791 77.137,1.631 76.199,1.631 C75.261,1.631 74.32,5.791 73.817,8.026 C72.886,12.137 72.086,15.69 69.847,15.69 C67.608,15.69 66.807,12.137 65.876,8.026 C65.371,5.791 64.433,1.631 63.494,1.631 C62.557,1.631 61.617,5.791 61.112,8.026 C60.183,12.137 59.383,15.69 57.144,15.69 C54.909,15.69 54.104,12.137 53.177,8.026 C52.672,5.792 51.733,1.63 50.793,1.63 C49.856,1.63 48.916,5.79 48.412,8.025 C47.483,12.136 46.683,15.69 44.443,15.69 C42.209,15.69 41.405,12.136 40.477,8.025 C39.973,5.791 39.035,1.629 38.096,1.629 C37.157,1.629 36.219,5.791 35.715,8.027 C34.786,12.135 33.986,15.688 31.749,15.688 C29.514,15.688 28.711,12.135 27.782,8.024 C27.278,5.789 26.339,1.629 25.401,1.629 C24.463,1.629 23.524,5.79 23.019,8.025 C22.091,12.136 21.29,15.69 19.053,15.69 C16.816,15.69 16.013,12.136 15.085,8.025 C14.58,5.791 13.64,1.629 12.701,1.629 C11.763,1.629 10.825,5.789 10.32,8.024 C9.391,12.135 8.591,15.688 6.352,15.688 C4.113,15.688 3.311,12.134 2.381,8.021 C1.875,5.788 0.936,1.629 0,1.629 L0,0.004 C2.235,0.004 3.038,3.553 3.969,7.664 C4.473,9.898 5.411,14.06 6.352,14.06 C7.29,14.06 8.229,9.9 8.734,7.664 C9.664,3.552 10.463,0.002 12.701,0.002 C14.939,0.002 15.742,3.553 16.672,7.666 C17.177,9.899 18.115,14.06 19.053,14.06 C19.99,14.06 20.929,9.902 21.431,7.666 C22.362,3.554 23.16,0.002 25.401,0.002 C27.637,0.002 28.44,3.552 29.37,7.664 C29.875,9.897 30.813,14.06 31.75,14.06 C32.686,14.06 33.623,9.902 34.129,7.667 C35.057,3.555 35.858,0.002 38.096,0.002 C40.334,0.002 41.135,3.553 42.065,7.666 C42.57,9.899 43.508,14.06 44.444,14.06 C45.382,14.06 46.32,9.9 46.826,7.664 C47.753,3.552 48.555,0.002 50.794,0.002 C53.031,0.002 53.834,3.553 54.764,7.666 C55.27,9.899 56.207,14.06 57.145,14.06 C58.083,14.06 59.02,9.9 59.526,7.664 C60.454,3.552 61.255,0.002 63.495,0.002 C65.733,0.002 66.533,3.552 67.464,7.664 C67.969,9.897 68.907,14.06 69.847,14.06 C70.787,14.06 71.727,9.9 72.231,7.664 C73.16,3.552 73.96,0.002 76.201,0.002 C78.437,0.002 79.239,3.552 80.168,7.664 C80.673,9.897 81.611,14.06 82.549,14.06 C83.487,14.06 84.426,9.9 84.93,7.664 C85.86,3.552 86.66,0.002 88.899,0.002 C91.133,0.002 91.934,3.551 92.865,7.662 C93.37,9.895 94.305,14.058 95.245,14.058 C96.183,14.058 97.122,9.9 97.626,7.666 C98.556,3.554 99.357,0.001 101.597,0.001 C103.834,0.001 104.637,3.551 105.565,7.663 C106.071,9.897 107.009,14.058 107.946,14.058 C108.884,14.058 109.823,9.9 110.328,7.665 C111.258,3.553 112.057,0.001 114.299,0.001 C116.535,0.001 117.338,3.55 118.268,7.663 C118.773,9.897 119.713,14.058 120.653,14.058 C121.591,14.058 122.528,9.898 123.033,7.663 C123.964,3.551 124.762,0.001 127.003,0.001 C129.242,0.001 130.044,3.553 130.974,7.666 C131.479,9.899 132.416,14.058 133.355,14.058 C134.292,14.058 135.231,9.898 135.736,7.663 C136.694,3.551 137.496,0.001 139.733,0.001 C141.97,0.001 142.773,3.551 143.7,7.663 C144.206,9.897 145.145,14.058 146.082,14.058 C147.02,14.058 147.958,9.9 148.462,7.665 C149.393,3.553 150.193,0.001 152.433,0.001 C154.671,0.001 155.475,3.552 156.404,7.665 C156.908,9.899 157.846,14.058 158.784,14.058 C159.723,14.058 160.663,9.898 161.168,7.663 C162.099,3.551 162.9,0.001 165.138,0.001 C167.377,0.001 168.179,3.552 169.108,7.665 C169.614,9.899 170.551,14.058 171.491,14.058 C172.429,14.058 173.368,9.898 173.873,7.663 C174.802,3.551 175.603,0.001 177.842,0.001 C180.081,0.001 180.882,3.551 181.811,7.663 C182.315,9.897 183.255,14.058 184.192,14.058 C185.13,14.058 186.073,9.896 186.578,7.662 C187.506,3.551 188.307,0.002 190.545,0.002 C192.783,0.002 193.584,3.552 194.513,7.664 C195.019,9.897 195.957,14.06 196.896,14.06 C197.834,14.06 198.773,9.9 199.278,7.664 C200.208,3.552 201.008,0.002 203.247,0.002 C205.486,0.002 206.288,3.552 207.217,7.664 C207.723,9.897 208.661,14.06 209.6,14.06 C210.538,14.06 211.477,9.902 211.981,7.667 C212.912,3.555 213.712,0.002 215.952,0.002 C218.188,0.002 218.993,3.551 219.922,7.664 C220.426,9.897 221.364,14.06 222.304,14.06 C223.242,14.06 224.182,9.902 224.686,7.666 C225.617,3.554 226.418,0.002 228.659,0.002 C230.894,0.002 231.697,3.551 232.627,7.664 C233.132,9.897 234.07,14.06 235.009,14.06 C235.948,14.06 236.886,9.902 237.392,7.666 C238.323,3.554 239.124,0.002 241.364,0.002 C243.6,0.002 244.403,3.551 245.333,7.664 C245.838,9.897 246.776,14.06 247.716,14.06 C248.654,14.06 249.594,9.9 250.098,7.664 C251.074,3.554 251.874,0.004 254.113,0.004 C256.352,0.004 257.151,3.554 258.081,7.666 C258.587,9.9 259.524,14.061 260.464,14.061 C261.402,14.061 262.341,9.901 262.846,7.666 C263.775,3.554 264.576,0.004 266.816,0.004 C269.053,0.004 269.854,3.554 270.786,7.666 C271.29,9.9 272.228,14.061 273.165,14.061 C274.102,14.061 275.038,9.903 275.542,7.669 C276.472,3.557 277.271,0.004 279.511,0.004 C281.747,0.004 282.549,3.554 283.477,7.667 C283.983,9.9 284.919,14.061 285.857,14.061 C286.793,14.061 287.73,9.903 288.235,7.668 C289.164,3.556 289.964,0.004 292.203,0.004 C294.438,0.004 295.239,3.555 296.168,7.668 C296.672,9.902 297.609,14.061 298.547,14.061 C299.483,14.061 300.422,9.901 300.927,7.666 C301.856,3.554 302.656,0.004 304.895,0.004 C307.132,0.004 307.935,3.553 308.863,7.666 C309.37,9.9 310.306,14.061 311.247,14.061 C312.185,14.061 313.124,9.903 313.63,7.668 C314.559,3.556 315.359,0.004 317.602,0.004 C319.837,0.004 320.639,3.554 321.57,7.666 C322.074,9.9 323.013,14.061 323.951,14.061 C324.888,14.061 325.826,9.901 326.33,7.667 C327.254,3.555 328.054,0.004 330.291,0.004 C332.529,0.004 333.331,3.554 334.26,7.666 C334.764,9.9 335.703,14.061 336.642,14.061 C337.58,14.061 338.518,9.901 339.022,7.666 C339.945,3.554 340.745,0.004 342.984,0.004 C345.223,0.004 346.025,3.554 346.958,7.666 C347.463,9.898 348.4,14.061 349.342,14.061 C350.28,14.061 351.22,9.901 351.725,7.666 C352.653,3.554 353.457,0.004 355.694,0.004 C357.931,0.004 358.733,3.554 359.663,7.666 C360.169,9.9 361.106,14.061 362.044,14.061 C362.982,14.061 363.921,9.901 364.425,7.666 C365.355,3.554 366.154,0.004 368.392,0.004 C370.631,0.004 371.435,3.554 372.363,7.666 C372.869,9.898 373.808,14.061 374.749,14.061 C375.688,14.061 376.629,9.901 377.134,7.666 C378.044,3.554 378.847,0.004 381.085,0.004 C383.321,0.004 384.125,3.556 385.056,7.669 C385.56,9.902 386.499,14.061 387.436,14.061 C388.374,14.061 389.312,9.903 389.818,7.669 C390.747,3.557 391.548,0.004 393.789,0.004 C396.027,0.004 396.829,3.554 397.76,7.666 C398.265,9.9 399.202,14.061 400.142,14.061 C401.08,14.061 402.022,9.901 402.526,7.666 C403.456,3.554 404.258,0.004 406.497,0.004 C408.736,0.004 409.538,3.554 410.468,7.666 C410.974,9.9 411.91,14.061 412.851,14.061 C413.789,14.061 414.73,9.901 415.236,7.666 C416.162,3.554 416.964,0.004 419.204,0.004 C421.442,0.004 422.246,3.554 423.175,7.666 C423.683,9.898 424.62,14.061 425.56,14.061 C426.498,14.061 427.441,9.899 427.945,7.665 C428.873,3.554 429.675,0.005 431.914,0.005 C434.154,0.005 434.957,3.557 435.889,7.669 C436.394,9.9 437.332,14.063 438.273,14.063 C439.211,14.063 440.151,9.903 440.657,7.667 C441.587,3.555 442.388,0.005 444.626,0.005 C446.867,0.005 447.669,3.556 448.601,7.669 C449.107,9.9 450.046,14.063 450.986,14.063 C451.926,14.063 452.865,9.903 453.369,7.667 C454.292,3.554 455.094,0.004 457.333,0.004 C459.57,0.004 460.374,3.553 461.304,7.664 C461.81,9.898 462.751,14.06 463.693,14.06 C464.631,14.06 465.57,9.9 466.076,7.664 C467.009,3.552 467.808,0.002 470.047,0.002 C472.287,0.002 473.089,3.553 474.019,7.666 C474.524,9.899 475.463,14.06 476.401,14.06 C477.339,14.06 478.278,9.9 478.782,7.664 C479.714,3.552 480.512,0.002 482.753,0.002 C484.987,0.002 485.794,3.551 486.723,7.663 C487.228,9.897 488.167,14.059 489.109,14.059 C490.047,14.059 490.986,9.901 491.491,7.665 C492.42,3.553 493.222,0.001 495.464,0.001 C497.699,0.001 498.505,3.55 499.434,7.661 C499.94,9.894 500.882,14.057 501.823,14.057 C502.761,14.057 503.701,9.897 504.208,7.664 C505.139,3.552 505.94,0 508.182,0 C510.421,0 511.223,3.551 512.154,7.664 C512.66,9.896 513.599,14.057 514.539,14.057 C515.48,14.057 516.421,9.897 516.93,7.661 C517.851,3.554 518.653,0.004 520.894,0.004 C523.133,0.004 523.936,3.553 524.867,7.665 C525.374,9.9 526.312,14.061 527.255,14.061 C528.194,14.061 529.138,9.901 529.643,7.666 C530.573,3.554 531.375,0.004 533.616,0.004 C535.857,0.004 536.661,3.555 537.593,7.668 C538.099,9.9 539.036,14.061 539.978,14.061 C540.92,14.061 541.859,9.901 542.365,7.668 C543.297,3.556 544.097,0.004 546.34,0.004 C548.579,0.004 549.384,3.554 550.315,7.666 C550.821,9.898 551.761,14.061 552.702,14.061 C553.645,14.061 554.587,9.903 555.095,7.668 C556.02,3.556 556.824,0.004 559.068,0.004 C561.312,0.004 562.117,3.554 563.048,7.666 C563.589,10.059 564.497,14.061 565.442,14.061 L565.442,15.69 L565.428,15.69 L565.428,15.69 Z" id="Shape-2" fill="#333333" sketch:type="MSShapeGroup"></path>
    </g>
</svg>